<svg xmlns="http://www.w3.org/2000/svg" xmlns:xlink="http://www.w3.org/1999/xlink" viewBox="0 0 33 33"><defs><style>.cls-1{fill:none;}.cls-2{fill:#ff0063;}.cls-3{opacity:0.3;}.cls-4{clip-path:url(#clip-path);}.cls-5{fill:#ff5ba3;}.cls-6{fill:#fff;}</style><clipPath id="clip-path"><rect class="cls-1" x="15.82" y="24.02" width="17.18" height="8.87"/></clipPath></defs><title>M</title><g id="Layer_2" data-name="Layer 2"><g id="Layer_1-2" data-name="Layer 1"><g id="Layer_2-2" data-name="Layer 2"><g id="Layer_1-2-2" data-name="Layer 1-2"><path class="cls-2" d="M33,1a1,1,0,0,0-1-1H1A1,1,0,0,0,0,1V32a1,1,0,0,0,1,1H24.13L33,24Z"/><g class="cls-3"><g class="cls-4"><polygon points="24.36 24.34 15.82 32.88 24.13 32.88 33 24.02 24.36 24.34"/></g></g><path class="cls-5" d="M33,24H25.1a1,1,0,0,0-1,1v7.9Z"/><path class="cls-6" d="M22.59,10.42v9.91a.36.36,0,0,1-.36.36H19.67a.35.35,0,0,1-.36-.34h0V15.4l-3.18,4.36c-.21-.28-3.1-4.33-3.25-4.59v5.19a.35.35,0,0,1-.35.35H10a.35.35,0,0,1-.35-.35h0V10.42a.36.36,0,0,1,.35-.36h2.29a.36.36,0,0,1,.29.15L16.12,15l3.55-4.83a.36.36,0,0,1,.29-.14h2.29a.35.35,0,0,1,.36.34h0"/></g></g></g></g></svg>